{
	"asset":{
		"generator":"Khronos glTF Blender I/O v4.5.48",
		"version":"2.0"
	},
	"scene":0,
	"scenes":[
		{
			"name":"Scene",
			"nodes":[
				2
			]
		}
	],
	"nodes":[
		{
			"mesh":0,
			"name":"OpenSignBlueBackground"
		},
		{
			"mesh":1,
			"name":"OpenSignText"
		},
		{
			"children":[
				0,
				1
			],
			"mesh":2,
			"name":"OpenSign",
			"rotation":[
				0.7071068286895752,
				0,
				0,
				0.7071068286895752
			],
			"scale":[
				0.25000008940696716,
				0.25000056624412537,
				0.2500000298023224
			]
		}
	],
	"materials":[
		{
			"doubleSided":true,
			"name":"Material.001",
			"pbrMetallicRoughness":{
				"baseColorTexture":{
					"index":0
				},
				"metallicFactor":0,
				"roughnessFactor":0.5
			}
		}
	],
	"meshes":[
		{
			"name":"Plane.002",
			"primitives":[
				{
					"attributes":{
						"POSITION":0,
						"NORMAL":1,
						"TEXCOORD_0":2,
						"COLOR_0":3,
						"COLOR_1":4
					},
					"indices":5,
					"material":0
				}
			]
		},
		{
			"name":"Mesh",
			"primitives":[
				{
					"attributes":{
						"POSITION":6,
						"NORMAL":7,
						"TEXCOORD_0":8,
						"COLOR_0":9,
						"COLOR_1":10
					},
					"indices":11,
					"material":0
				}
			]
		},
		{
			"name":"Plane",
			"primitives":[
				{
					"attributes":{
						"POSITION":12,
						"NORMAL":13,
						"TEXCOORD_0":14,
						"COLOR_0":15,
						"COLOR_1":16
					},
					"indices":17,
					"material":0
				}
			]
		}
	],
	"textures":[
		{
			"sampler":0,
			"source":0
		}
	],
	"images":[
		{
			"mimeType":"image/png",
			"name":"open_sign_texture",
			"uri":"open_sign_texture.png"
		}
	],
	"accessors":[
		{
			"bufferView":0,
			"componentType":5126,
			"count":38964,
			"max":[
				1.9516769647598267,
				-0.010416599921882153,
				1.3011189699172974
			],
			"min":[
				-2.0587923526763916,
				-0.23958347737789154,
				-0.7826939225196838
			],
			"type":"VEC3"
		},
		{
			"bufferView":1,
			"componentType":5126,
			"count":38964,
			"type":"VEC3"
		},
		{
			"bufferView":2,
			"componentType":5126,
			"count":38964,
			"type":"VEC2"
		},
		{
			"bufferView":3,
			"componentType":5121,
			"count":38964,
			"normalized":true,
			"type":"VEC4"
		},
		{
			"bufferView":4,
			"componentType":5123,
			"count":38964,
			"normalized":true,
			"type":"VEC4"
		},
		{
			"bufferView":5,
			"componentType":5123,
			"count":39168,
			"type":"SCALAR"
		},
		{
			"bufferView":6,
			"componentType":5126,
			"count":55808,
			"max":[
				1.711663842201233,
				-0.004062518943101168,
				0.814284086227417
			],
			"min":[
				-1.8111928701400757,
				-0.2459375560283661,
				-0.4939189851284027
			],
			"type":"VEC3"
		},
		{
			"bufferView":7,
			"componentType":5126,
			"count":55808,
			"type":"VEC3"
		},
		{
			"bufferView":8,
			"componentType":5126,
			"count":55808,
			"type":"VEC2"
		},
		{
			"bufferView":9,
			"componentType":5121,
			"count":55808,
			"normalized":true,
			"type":"VEC4"
		},
		{
			"bufferView":10,
			"componentType":5123,
			"count":55808,
			"normalized":true,
			"type":"VEC4"
		},
		{
			"bufferView":11,
			"componentType":5123,
			"count":83712,
			"type":"SCALAR"
		},
		{
			"bufferView":12,
			"componentType":5126,
			"count":45044,
			"max":[
				2.196873664855957,
				-0.00261705182492733,
				1.503688097000122
			],
			"min":[
				-2.240015983581543,
				-0.2474057674407959,
				-1.5140992403030396
			],
			"type":"VEC3"
		},
		{
			"bufferView":13,
			"componentType":5126,
			"count":45044,
			"type":"VEC3"
		},
		{
			"bufferView":14,
			"componentType":5126,
			"count":45044,
			"type":"VEC2"
		},
		{
			"bufferView":15,
			"componentType":5121,
			"count":45044,
			"normalized":true,
			"type":"VEC4"
		},
		{
			"bufferView":16,
			"componentType":5123,
			"count":45044,
			"normalized":true,
			"type":"VEC4"
		},
		{
			"bufferView":17,
			"componentType":5123,
			"count":45312,
			"type":"SCALAR"
		}
	],
	"bufferViews":[
		{
			"buffer":0,
			"byteLength":467568,
			"byteOffset":0,
			"target":34962
		},
		{
			"buffer":0,
			"byteLength":467568,
			"byteOffset":467568,
			"target":34962
		},
		{
			"buffer":0,
			"byteLength":311712,
			"byteOffset":935136,
			"target":34962
		},
		{
			"buffer":0,
			"byteLength":155856,
			"byteOffset":1246848,
			"target":34962
		},
		{
			"buffer":0,
			"byteLength":311712,
			"byteOffset":1402704,
			"target":34962
		},
		{
			"buffer":0,
			"byteLength":78336,
			"byteOffset":1714416,
			"target":34963
		},
		{
			"buffer":0,
			"byteLength":669696,
			"byteOffset":1792752,
			"target":34962
		},
		{
			"buffer":0,
			"byteLength":669696,
			"byteOffset":2462448,
			"target":34962
		},
		{
			"buffer":0,
			"byteLength":446464,
			"byteOffset":3132144,
			"target":34962
		},
		{
			"buffer":0,
			"byteLength":223232,
			"byteOffset":3578608,
			"target":34962
		},
		{
			"buffer":0,
			"byteLength":446464,
			"byteOffset":3801840,
			"target":34962
		},
		{
			"buffer":0,
			"byteLength":167424,
			"byteOffset":4248304,
			"target":34963
		},
		{
			"buffer":0,
			"byteLength":540528,
			"byteOffset":4415728,
			"target":34962
		},
		{
			"buffer":0,
			"byteLength":540528,
			"byteOffset":4956256,
			"target":34962
		},
		{
			"buffer":0,
			"byteLength":360352,
			"byteOffset":5496784,
			"target":34962
		},
		{
			"buffer":0,
			"byteLength":180176,
			"byteOffset":5857136,
			"target":34962
		},
		{
			"buffer":0,
			"byteLength":360352,
			"byteOffset":6037312,
			"target":34962
		},
		{
			"buffer":0,
			"byteLength":90624,
			"byteOffset":6397664,
			"target":34963
		}
	],
	"samplers":[
		{
			"magFilter":9729,
			"minFilter":9987
		}
	],
	"buffers":[
		{
			"byteLength":6488288,
			"uri":"open_sign.bin"
		}
	]
}
