{
  "accessors": [
    {
      "bufferView": 2,
      "componentType": 5126,
      "count": 30249,
      "max": [
        1.3965305089950562,
        1.3457720279693604,
        0.8713881969451904
      ],
      "min": [
        -2.393932342529297,
        -1.5603753328323364,
        -0.11384863406419754
      ],
      "type": "VEC3"
    },
    {
      "bufferView": 2,
      "byteOffset": 362988,
      "componentType": 5126,
      "count": 30249,
      "max": [
        1.0,
        1.0,
        1.0
      ],
      "min": [
        -1.0,
        -1.0,
        -0.9999990463256836
      ],
      "type": "VEC3"
    },
    {
      "bufferView": 3,
      "componentType": 5126,
      "count": 30249,
      "max": [
        1.0,
        0.9999992251396179,
        0.9999977350234985,
        1.0
      ],
      "min": [
        -0.9999933838844299,
        -0.9999787211418152,
        -0.9999797344207764,
        -1.0
      ],
      "type": "VEC4"
    },
    {
      "bufferView": 1,
      "componentType": 5126,
      "count": 30249,
      "max": [
        0.9997524619102478,
        0.9949212670326233
      ],
      "min": [
        0.0002475713554304093,
        0.0002475713554304093
      ],
      "type": "VEC2"
    },
    {
      "bufferView": 0,
      "componentType": 5125,
      "count": 51540,
      "type": "SCALAR"
    }
  ],
  "asset": {
    "extras": {
      "author": "alixor22 (https://sketchfab.com/alixor22)",
      "license": "CC-BY-4.0 (http://creativecommons.org/licenses/by/4.0/)",
      "source": "https://sketchfab.com/3d-models/landline-phone-85d3fe01f51642d6b3130e602d6633fa",
      "title": "Landline phone"
    },
    "generator": "Sketchfab-15.12.0",
    "version": "2.0"
  },
  "bufferViews": [
    {
      "buffer": 0,
      "byteLength": 206160,
      "name": "floatBufferViews",
      "target": 34963
    },
    {
      "buffer": 0,
      "byteLength": 241992,
      "byteOffset": 206160,
      "byteStride": 8,
      "name": "floatBufferViews",
      "target": 34962
    },
    {
      "buffer": 0,
      "byteLength": 725976,
      "byteOffset": 448152,
      "byteStride": 12,
      "name": "floatBufferViews",
      "target": 34962
    },
    {
      "buffer": 0,
      "byteLength": 483984,
      "byteOffset": 1174128,
      "byteStride": 16,
      "name": "floatBufferViews",
      "target": 34962
    }
  ],
  "buffers": [
    {
      "byteLength": 1658112,
      "uri": "scene.bin"
    }
  ],
  "images": [
    {
      "uri": "textures/tel_fijo_baseColor.jpeg"
    },
    {
      "uri": "textures/tel_fijo_metallicRoughness.png"
    },
    {
      "uri": "textures/tel_fijo_normal.png"
    }
  ],
  "materials": [
    {
      "doubleSided": true,
      "name": "tel_fijo",
      "normalTexture": {
        "index": 2
      },
      "pbrMetallicRoughness": {
        "baseColorTexture": {
          "index": 0
        },
        "metallicRoughnessTexture": {
          "index": 1
        }
      }
    }
  ],
  "meshes": [
    {
      "name": "tel fijo_tel fijo_0",
      "primitives": [
        {
          "attributes": {
            "NORMAL": 1,
            "POSITION": 0,
            "TANGENT": 2,
            "TEXCOORD_0": 3
          },
          "indices": 4,
          "material": 0,
          "mode": 4
        }
      ]
    }
  ],
  "nodes": [
    {
      "children": [
        1
      ],
      "matrix": [
        1.0,
        0.0,
        0.0,
        0.0,
        0.0,
        2.220446049250313e-16,
        -1.0,
        0.0,
        0.0,
        1.0,
        2.220446049250313e-16,
        0.0,
        0.0,
        0.0,
        0.0,
        1.0
      ],
      "name": "Sketchfab_model"
    },
    {
      "children": [
        2
      ],
      "matrix": [
        0.009999999776482582,
        0.0,
        0.0,
        0.0,
        0.0,
        0.0,
        0.009999999776482582,
        0.0,
        0.0,
        -0.009999999776482582,
        0.0,
        0.0,
        0.0,
        0.0,
        0.0,
        1.0
      ],
      "name": "ceeefe4c124549998c000cd8c43d2fae.fbx"
    },
    {
      "children": [
        3
      ],
      "name": "RootNode"
    },
    {
      "children": [
        4
      ],
      "matrix": [
        6.504125118255615,
        -1.1854763848363417e-16,
        -4.873734006693698e-18,
        0.0,
        6.809621430598432e-18,
        0.7459659847294683,
        -9.057095858248472,
        0.0,
        1.1854766778519706e-16,
        6.4821774653809765,
        0.5338890050225449,
        0.0,
        0.0,
        0.0,
        0.0,
        1.0
      ],
      "name": "tel fijo"
    },
    {
      "mesh": 0,
      "name": "tel fijo_tel fijo_0"
    }
  ],
  "samplers": [
    {
      "magFilter": 9729,
      "minFilter": 9987,
      "wrapS": 10497,
      "wrapT": 10497
    }
  ],
  "scene": 0,
  "scenes": [
    {
      "name": "Sketchfab_Scene",
      "nodes": [
        0
      ]
    }
  ],
  "textures": [
    {
      "sampler": 0,
      "source": 0
    },
    {
      "sampler": 0,
      "source": 1
    },
    {
      "sampler": 0,
      "source": 2
    }
  ]
}
